<svg width="151" height="80" viewBox="0 0 151 80" fill="none" xmlns="http://www.w3.org/2000/svg">
<g clip-path="url(#clip0_301_2878)">
<path fill-rule="evenodd" clip-rule="evenodd" d="M143.445 67.7427H64.1224C63.0871 67.7427 62.2406 68.303 62.2406 68.9889V78.2253C62.2406 78.9113 63.0871 79.4727 64.1224 79.4727H143.445C144.481 79.4727 145.328 78.9113 145.328 78.2253V68.9889C145.328 68.303 144.481 67.7427 143.445 67.7427ZM47.1497 60.1486C47.1497 55.6696 52.3512 49.1758 57.3194 49.1758C56.6479 52.0237 49.1345 62.683 47.1497 60.1486ZM71.1141 48.697C69.6773 51.3514 63.4944 61.6145 60.2639 61.6145C52.2963 61.6145 64.6944 46.4422 57.4075 46.4422C51.9612 46.4422 43.6996 55.6334 43.6996 60.7667C43.6996 62.2789 44.966 63.567 46.5938 63.567C50.4283 63.567 52.4233 59.2295 55.131 57.4343C55.131 60.7236 54.9434 63.1425 59.0284 63.1425C66.8164 63.1425 68.856 53.9423 72.0144 51.3208C72.5818 51.5359 73.2133 52.4754 75.6167 52.5286C74.6604 56.0692 73.5748 57.9471 73.5748 61.8737C73.5748 63.9609 75.8832 64.7001 77.5122 64.7001C83.8942 65.0442 87.3913 58.6126 88.1188 55.5247C85.9362 56.9713 82.0674 62.0061 78.4777 62.0061C71.8932 62.0061 79.4157 51.4827 80.5116 49.5075L79.1366 48.3292C77.6232 49.3309 77.2296 50.4379 74.9463 50.4379C70.8716 50.4379 74.8594 45.5582 74.8594 44.0969V43.6736C74.8594 42.5303 74.6558 42.5066 74.4316 41.5569L73.4546 41.5286L72.369 41.4969L71.1164 48.697H71.1141ZM9.83788 64.4137C10.6318 63.1754 12.5788 52.0724 15.3654 52.0724C22.2176 50.9688 35.0892 53.227 35.9998 58.5221C31.265 60.9534 2.567 72.7435 2.567 59.7581C2.567 54.4438 6.99405 53.0606 11.4199 52.0396C11.1374 55.3957 8.55667 58.333 8.55667 63.567C8.55667 64.3379 9.20871 64.2462 9.84017 64.4137H9.83788ZM2.13802 33.0913C5.37995 29.6027 39.2852 24.4955 39.2852 33.7286C39.2852 40.777 24.0433 38.1623 22.6706 43.2491H27.8034C32.0749 43.2491 40.5973 45.8061 40.5973 51.3016C40.5973 52.3316 39.9635 56.3703 38.4981 56.3703C32.4261 50.9767 25.9629 48.3405 15.8584 49.7293C15.9637 45.084 26.7316 33.1207 26.9489 30.5513C20.9227 30.5513 14.7339 45.3862 12.2218 50.0825C7.11073 50.0825 0 53.219 0 59.4401C0 65.2909 3.74983 68.4139 12.0457 68.2837C21.8927 68.2837 33.1067 65.0634 38.6697 60.0603C40.6533 60.0603 39.8629 62.7271 42.4264 62.4283C41.3511 61.3937 42.3246 59.4672 40.3811 58.7903C41.7881 56.1586 43.2043 54.6486 43.2043 51.5008C43.0293 42.7477 31.2273 44.098 31.2273 42.1251C31.2273 40.4272 44.06 39.6587 44.06 34.359C44.06 23.7835 5.33305 20.021 2.13917 33.089L2.13802 33.0913ZM131.498 59.0461L140.305 61.0259C139.826 62.8018 138.516 63.567 136.716 63.567C134.176 63.567 131.841 61.6835 131.498 59.0461ZM137.99 49.7803L138.594 49.5992L141.058 59.6766L140.81 59.937L132.204 57.6595L137.99 49.7803ZM122.124 49.22C122.817 49.2743 122.729 49.1158 122.663 49.8006C122.43 52.2569 115.625 61.4696 113.459 60.6172C109.242 58.9567 116.579 48.7853 122.125 49.22H122.124ZM97.888 54.094C98.3559 52.3622 102.205 48.3292 104.373 48.3292C104.972 48.3292 105.229 48.9053 105.229 49.5992C105.229 52.7391 100.595 54.5377 97.888 54.094ZM96.0337 47.5549C99.2059 36.3659 114.082 24.0461 114.082 29.3458C114.082 34.3375 99.7412 46.5747 96.0337 47.5549ZM88.1188 63.5681H88.5466C90.0097 63.5681 91.2017 57.1909 95.2924 56.11C95.9273 58.8096 99.382 63.9915 102.235 63.9915C106.527 63.9915 107.743 61.1696 110.363 60.4769V61.8748C110.363 62.8652 111.073 63.5681 112.074 63.5681H112.502C115.483 63.5681 118.835 57.5622 120.63 57.0868V59.7593C120.63 66.0595 127.747 64.0277 129.642 61.0372C131.536 63.8908 133.772 65.3577 137.618 65.3577C140.618 65.3577 142.577 63.6768 143.3 60.6048C146.377 60.3524 150.304 58.5289 151 55.9504C150.27 56.4325 144.213 60.2856 143.038 58.1791C142.38 57.003 140.734 50.9926 140.734 49.6014C140.734 47.7462 143.11 46.2147 145.011 46.2147H146.295C146.136 44.7874 145.14 44.098 143.728 44.098C139.913 44.098 132.412 53.3798 131.711 55.9877C128.395 55.4772 129.184 56.0115 129.184 59.3359C128.447 61.8906 123.195 63.6949 123.195 58.9114V55.1037C123.195 52.4301 128.334 46.6392 122.471 46.6392C112.219 46.7547 112.265 60.9002 104.111 60.9002C100.345 60.9002 98.2724 59.2748 97.9567 55.527C101.27 55.527 107.796 52.4097 107.796 48.5295C107.796 47.7417 107.589 46.2147 106.512 46.2147C101.322 46.2147 95.5395 55.1207 92.3948 55.9515C92.8993 49.9535 100.934 46.852 104.688 43.1404C107.966 39.8986 115.922 33.7535 115.922 28.0146V27.5913C115.922 26.6043 114.781 25.4746 113.783 25.4746H113.355C106.842 25.4746 99.5056 35.9358 96.4947 40.4736C95.432 42.0742 83.98 63.5693 88.1165 63.5693L88.1188 63.5681ZM68.0129 14.8912C63.269 14.4962 57.0929 16.3038 54.058 20.1286C49.7568 25.5482 47.6782 36.3139 54.3257 41.1336C50.0851 30.8569 55.918 9.51685 80.4178 21.6635C79.7063 19.0295 73.8459 15.3145 70.1509 15.3145C70.2207 12.2402 73.4054 9.05729 75.2815 7.6922C78.0922 5.64569 81.0012 4.2591 84.1562 3.56184C88.1565 2.67894 92.2335 2.76383 96.0291 4.40285C101.348 6.70064 106.407 11.3358 107.367 14.8912C102.844 15.6994 97.864 17.2512 96.672 21.6635C103.839 16.8449 116.485 13.8034 122.536 25.1826C126.04 31.7703 124.655 35.9686 122.766 41.1347C131.578 34.7461 126.546 20.9334 118.235 16.8494C115.318 15.4141 112.303 14.8923 109.077 14.8923C106.993 6.03281 97.0747 0.5 88.4608 0.5C79.847 0.5 70.0583 6.19694 68.0118 14.8912H68.0129Z" fill="#3E516F"/>
<path d="M69.0266 77.5679V70.929H66.6303V69.5772H73.0478V70.929H70.6571V77.5679H69.0266Z" fill="white"/>
<path d="M74.1055 77.5679V69.5772H80.0933V70.929H75.736V72.7004H79.7904V74.0468H75.736V76.2216H80.2476V77.5679H74.1055Z" fill="white"/>
<path d="M81.6523 77.5679V69.5772H83.2828V73.1256L86.5769 69.5772H88.7694L85.7286 72.6895L88.9346 77.5679H86.8248L84.6049 73.8178L83.2828 75.1533V77.5679H81.6523Z" fill="white"/>
<path d="M89.3698 74.9679L90.9563 74.8153C91.0518 75.3422 91.2446 75.7292 91.5347 75.9763C91.8285 76.2234 92.2233 76.347 92.719 76.347C93.2442 76.347 93.639 76.2379 93.9034 76.0199C94.1715 75.7983 94.3055 75.5403 94.3055 75.2459C94.3055 75.057 94.2486 74.8971 94.1347 74.7663C94.0246 74.6318 93.8299 74.5155 93.5508 74.4174C93.3599 74.352 92.9247 74.2357 92.2453 74.0686C91.3713 73.8542 90.758 73.5907 90.4054 73.2782C89.9096 72.8385 89.6618 72.3025 89.6618 71.6703C89.6618 71.2633 89.7774 70.8835 90.0088 70.5311C90.2438 70.1749 90.5799 69.9042 91.0169 69.7189C91.4576 69.5336 91.9882 69.4409 92.6089 69.4409C93.6224 69.4409 94.3845 69.6608 94.8949 70.1005C95.4091 70.5401 95.679 71.127 95.7047 71.861L94.0741 71.9319C94.0044 71.5213 93.8538 71.2269 93.6224 71.0489C93.3948 70.8672 93.0514 70.7763 92.5923 70.7763C92.1186 70.7763 91.7477 70.8726 91.4796 71.0652C91.307 71.1888 91.2207 71.3541 91.2207 71.5612C91.2207 71.7502 91.3015 71.9119 91.4631 72.0464C91.6687 72.2171 92.1682 72.3952 92.9614 72.5805C93.7546 72.7658 94.3404 72.9584 94.7187 73.1583C95.1006 73.3545 95.398 73.6252 95.611 73.9705C95.8277 74.312 95.9361 74.7354 95.9361 75.2405C95.9361 75.6983 95.8075 76.1271 95.5505 76.5268C95.2934 76.9266 94.9298 77.2245 94.4597 77.4207C93.9897 77.6133 93.4039 77.7096 92.7025 77.7096C91.6816 77.7096 90.8975 77.4771 90.3503 77.0119C89.8031 76.5432 89.4763 75.8618 89.3698 74.9679Z" fill="white"/>
<path d="M104.204 74.63V73.2837H107.719V76.4669C107.377 76.7939 106.882 77.0828 106.232 77.3335C105.585 77.5806 104.93 77.7042 104.265 77.7042C103.42 77.7042 102.684 77.5298 102.056 77.1809C101.428 76.8284 100.956 76.327 100.64 75.6765C100.325 75.0224 100.167 74.312 100.167 73.5453C100.167 72.7132 100.343 71.9737 100.695 71.3269C101.048 70.68 101.564 70.184 102.243 69.8388C102.761 69.5736 103.406 69.4409 104.177 69.4409C105.179 69.4409 105.962 69.6499 106.524 70.0677C107.089 70.482 107.453 71.0561 107.614 71.7902L105.995 72.09C105.881 71.6975 105.666 71.3886 105.35 71.1633C105.038 70.9344 104.647 70.8199 104.177 70.8199C103.464 70.8199 102.897 71.0434 102.475 71.4904C102.056 71.9373 101.847 72.6005 101.847 73.4799C101.847 74.4283 102.06 75.1405 102.486 75.6166C102.912 76.089 103.47 76.3252 104.16 76.3252C104.502 76.3252 104.843 76.2597 105.185 76.1289C105.53 75.9945 105.826 75.8328 106.072 75.6438V74.63H104.204Z" fill="white"/>
<path d="M109.234 77.5679V69.5772H112.666C113.529 69.5772 114.155 69.6499 114.544 69.7952C114.937 69.9369 115.251 70.1913 115.486 70.5583C115.721 70.9253 115.839 71.345 115.839 71.8174C115.839 72.417 115.661 72.913 115.304 73.3055C114.948 73.6943 114.416 73.9396 113.707 74.0413C114.059 74.2448 114.349 74.4683 114.577 74.7117C114.809 74.9552 115.119 75.3876 115.508 76.009L116.494 77.5679H114.544L113.365 75.8291C112.947 75.2078 112.66 74.8171 112.506 74.6572C112.352 74.4937 112.188 74.3829 112.016 74.3247C111.843 74.263 111.569 74.2321 111.195 74.2321H110.864V77.5679H109.234ZM110.864 72.9566H112.071C112.853 72.9566 113.341 72.9239 113.536 72.8585C113.731 72.7931 113.883 72.6805 113.993 72.5206C114.103 72.3607 114.158 72.1608 114.158 71.921C114.158 71.6521 114.085 71.4359 113.938 71.2724C113.795 71.1052 113.591 70.9998 113.327 70.9562C113.194 70.938 112.798 70.929 112.137 70.929H110.864V72.9566Z" fill="white"/>
<path d="M117.051 73.6216C117.051 72.8076 117.174 72.1245 117.42 71.5721C117.603 71.1652 117.853 70.8 118.169 70.4766C118.488 70.1531 118.837 69.9133 119.215 69.7571C119.719 69.5463 120.299 69.4409 120.956 69.4409C122.146 69.4409 123.097 69.8061 123.81 70.5365C124.526 71.2669 124.884 72.2826 124.884 73.5835C124.884 74.8735 124.529 75.8837 123.821 76.614C123.112 77.3408 122.164 77.7042 120.978 77.7042C119.777 77.7042 118.822 77.3426 118.114 76.6195C117.405 75.8927 117.051 74.8934 117.051 73.6216ZM118.731 73.5671C118.731 74.4719 118.942 75.1587 119.364 75.6275C119.786 76.0926 120.323 76.3252 120.973 76.3252C121.623 76.3252 122.155 76.0944 122.57 75.6329C122.989 75.1678 123.198 74.4719 123.198 73.5453C123.198 72.6296 122.994 71.9464 122.587 71.4958C122.183 71.0452 121.645 70.8199 120.973 70.8199C120.301 70.8199 119.759 71.0489 119.348 71.5067C118.936 71.961 118.731 72.6477 118.731 73.5671Z" fill="white"/>
<path d="M126.151 69.5772H127.781V73.905C127.781 74.5918 127.801 75.037 127.842 75.2405C127.912 75.5675 128.077 75.831 128.338 76.0308C128.602 76.227 128.962 76.3252 129.417 76.3252C129.88 76.3252 130.229 76.2325 130.464 76.0472C130.699 75.8582 130.84 75.6275 130.888 75.3549C130.936 75.0824 130.96 74.63 130.96 73.9977V69.5772H132.59V73.7742C132.59 74.7336 132.546 75.4113 132.458 75.8073C132.37 76.2034 132.206 76.5377 131.968 76.8103C131.733 77.0828 131.417 77.3008 131.02 77.4644C130.624 77.6242 130.106 77.7042 129.467 77.7042C128.696 77.7042 128.11 77.617 127.71 77.4426C127.313 77.2645 126.999 77.0356 126.768 76.7558C126.536 76.4723 126.384 76.1762 126.31 75.8673C126.204 75.4094 126.151 74.7336 126.151 73.8396V69.5772Z" fill="white"/>
<path d="M134.314 77.5679V69.5772H136.931C137.923 69.5772 138.569 69.6172 138.87 69.6971C139.333 69.817 139.72 70.0787 140.032 70.482C140.345 70.8817 140.501 71.3995 140.501 72.0355C140.501 72.526 140.411 72.9385 140.231 73.2728C140.051 73.6071 139.821 73.8705 139.542 74.0631C139.267 74.2521 138.986 74.3774 138.699 74.4392C138.31 74.5155 137.746 74.5537 137.008 74.5537H135.945V77.5679H134.314ZM135.945 70.929V73.1965H136.837C137.48 73.1965 137.91 73.1547 138.126 73.0711C138.343 72.9875 138.512 72.8567 138.633 72.6786C138.758 72.5006 138.82 72.2935 138.82 72.0573C138.82 71.7666 138.734 71.5267 138.562 71.3378C138.389 71.1488 138.17 71.0307 137.906 70.9835C137.711 70.9471 137.32 70.929 136.733 70.929H135.945Z" fill="white"/>
</g>
<defs>
<clipPath id="clip0_301_2878">
<rect width="151" height="79" fill="white" transform="translate(0 0.5)"/>
</clipPath>
</defs>
</svg>
