<svg width="113" height="42" viewBox="0 0 113 42" fill="none" xmlns="http://www.w3.org/2000/svg">
<path fill-rule="evenodd" clip-rule="evenodd" d="M43.1994 41.7003H32.3095L22.1851 4.02122L24.7281 0.000961304H25.4234C29.3593 0.000961304 32.6798 2.56865 33.7057 6.38538L43.1994 41.7008V41.7003Z" fill="url(#paint0_linear_626_16)"/>
<path fill-rule="evenodd" clip-rule="evenodd" d="M0 35.5914L2.40639 26.5697H7.32477C8.08071 26.5697 8.76641 26.6878 9.48508 26.9451C13.7899 28.4875 19.1207 28.0674 23.4384 26.8213C23.6692 26.7545 23.9808 26.7022 24.3124 26.6629C24.8366 26.6009 25.3732 26.5697 25.9017 26.5697C33.4697 26.5697 103.026 26.5697 110.594 26.5697L113 35.5914H23.4327C23.1077 35.5914 22.78 35.6082 22.4569 35.6322C22.0016 35.6663 21.4735 35.7158 21.0325 35.843C16.7157 37.0891 11.3783 37.5072 7.07869 35.9668C6.36145 35.71 5.67671 35.5914 4.91838 35.5914H0H0Z" fill="url(#paint1_linear_626_16)"/>
<path fill-rule="evenodd" clip-rule="evenodd" d="M25.0756 14.8579V14.8574L17.9549 41.624H7.06494L16.4459 6.38442C17.4627 2.56529 20.7927 0 24.7282 0H25.4235C28.592 0 31.3673 1.66331 32.8596 4.30492C29.8841 5.98407 27.2096 9.11771 25.0756 14.857V14.8574V14.8579Z" fill="url(#paint2_linear_626_16)"/>
<path d="M55.2604 41.4392H56.6365V36.5918H55.2604V38.4827H53.4914V36.5918H52.1157V41.4392H53.4914V39.424H55.2604V41.4392ZM62.5163 36.5088C61.078 36.5088 60.1487 37.3191 60.1487 38.4548V39.5767C60.1487 40.7124 61.078 41.5227 62.5163 41.5227C63.9546 41.5227 64.884 40.7124 64.884 39.5767V38.4548C64.884 37.3195 63.9546 36.5088 62.5163 36.5088ZM62.5163 40.5804C61.8913 40.5804 61.5248 40.2132 61.5248 39.4792V38.5513C61.5248 37.8173 61.8913 37.4506 62.5163 37.4506C63.1418 37.4506 63.5078 37.8178 63.5078 38.5513V39.4792C63.5078 40.2132 63.1413 40.5804 62.5163 40.5804ZM68.3966 41.4392H72.4616V40.4974H69.7723V36.5918H68.3966V41.4392ZM75.6612 41.4392H77.7603C79.1986 41.4392 80.1194 40.7258 80.1194 39.5695V38.4611C80.1194 37.3047 79.1991 36.5913 77.7603 36.5913H75.6612V41.4387V41.4392ZM78.7432 39.472C78.7432 40.1993 78.3858 40.4969 77.7426 40.4969H77.0369V37.5332H77.7426C78.3858 37.5332 78.7432 37.8308 78.7432 38.558V39.472ZM85.0698 36.5913H83.6941V41.4387H85.0698V36.5913ZM92.397 41.4387H93.603V36.5913H92.2273V39.4792L90.0298 36.5913H88.8237V41.4387H90.1994V38.5508L92.397 41.4387ZM98.4918 38.5575C98.4918 37.8375 98.831 37.4496 99.5015 37.4496C100.047 37.4496 100.368 37.7338 100.475 38.2806L101.842 38.149C101.664 37.1381 100.788 36.5078 99.4838 36.5078C98.0455 36.5078 97.1166 37.3181 97.1166 38.4606V39.5757C97.1166 40.7186 98.0455 41.5217 99.4928 41.5217C101.003 41.5217 101.86 40.7047 101.86 39.5411V38.8072H99.4656V39.6381H100.475V39.6659C100.475 40.2127 100.127 40.5866 99.4838 40.5866C98.8497 40.5866 98.4923 40.1988 98.4923 39.4787V38.5575H98.4918Z" fill="#E31E24"/>
<path d="M57.4065 25.3653H54.7382L51.7957 16.6369C51.7766 16.5452 51.714 16.4977 51.6003 16.4977C51.4966 16.4977 51.4206 16.5452 51.3704 16.6369L48.4915 25.3653H45.7883C45.9393 24.8272 46.2705 23.7544 46.7808 22.153C47.2878 20.5482 47.7795 19.0323 48.2611 17.6018C48.7968 16.0134 49.1213 15.1272 49.2378 14.9467C49.4615 14.6299 49.7826 14.3894 50.2078 14.2219C50.6331 14.0544 51.0933 13.9718 51.5907 13.9718C52.0915 13.9718 52.5516 14.0539 52.9707 14.2219C53.3926 14.3894 53.7142 14.6299 53.9379 14.9467C54.0736 15.1335 54.4042 16.01 54.9332 17.5831C55.2576 18.5479 55.746 20.0672 56.392 22.1338C56.7858 23.3905 57.1226 24.4662 57.4065 25.3653ZM65.4428 25.3716L59.8296 23.1303V25.3543H57.8848V22.3767C57.8848 21.6605 58.0597 21.082 58.4109 20.6413C58.8199 20.1277 59.4206 19.8699 60.2128 19.8699H62.6283C62.8524 19.8699 63.0244 19.7951 63.1467 19.6424C63.2686 19.4898 63.3283 19.3093 63.3283 19.1038C63.3283 18.8811 63.271 18.6953 63.1539 18.5455C63.0215 18.378 62.8476 18.2926 62.6283 18.2926H57.8843V16.3993H62.9594C63.7197 16.3993 64.3203 16.6797 64.7642 17.2408C65.1627 17.7468 65.3625 18.3674 65.3625 19.1038C65.3625 19.8349 65.1627 20.4532 64.7642 20.9591C64.3208 21.5251 63.7197 21.8078 62.9594 21.8078H61.7328L65.4418 23.2426V25.3711L65.4428 25.3716ZM71.7019 18.2921H69.6831V25.3692H67.7388V18.2921H65.7342V16.3988H71.7019V18.2921ZM84.2132 18.2921H79.4644C79.2503 18.2921 79.0807 18.3722 78.956 18.535C78.8313 18.6953 78.7692 18.8854 78.7692 19.1033C78.7692 19.3136 78.8289 19.4965 78.9488 19.6443C79.0683 19.7946 79.2403 19.8695 79.4644 19.8695H82.2641C83.0195 19.8695 83.6178 20.1551 84.0536 20.7234C84.4502 21.2366 84.647 21.8678 84.647 22.6191C84.647 23.365 84.4502 23.9963 84.0564 24.5147C83.6178 25.0831 83.0195 25.3687 82.2665 25.3687H77.1737V23.4755H81.9396C82.1441 23.4755 82.3061 23.3881 82.4232 23.2153C82.5403 23.0425 82.5976 22.8447 82.5976 22.6196C82.5976 22.3944 82.5426 22.2015 82.4304 22.0435C82.3181 21.8856 82.1537 21.8078 81.9391 21.8078H79.1376C78.3773 21.8078 77.7767 21.5275 77.3328 20.9663C76.9338 20.4652 76.7345 19.8445 76.7345 19.1033C76.7345 18.3722 76.9338 17.7535 77.3328 17.2475C77.781 16.6816 78.3821 16.3988 79.1376 16.3988H84.2127V18.2921H84.2132ZM90.8537 25.3692H87.9422C86.8953 25.3692 86.07 24.9107 85.467 23.9968C84.9213 23.1754 84.6494 22.1611 84.6494 20.9567C84.6494 19.7346 84.9261 18.6929 85.4823 17.8312C86.0954 16.8774 86.9153 16.3988 87.9427 16.3988H90.8542C91.881 16.3988 92.7015 16.8774 93.3145 17.8312C93.8703 18.6929 94.1469 19.737 94.1469 20.9639C94.1469 22.1683 93.8774 23.1802 93.337 23.9968C92.734 24.9107 91.9059 25.3692 90.8542 25.3692H90.8537ZM90.5273 23.4308C90.9932 23.4308 91.3697 23.1553 91.6517 22.6066C91.9083 22.1083 92.0382 21.5044 92.0382 20.7988C92.0382 20.1124 91.9135 19.5363 91.667 19.0707C91.3874 18.5523 91.0085 18.2916 90.5278 18.2916H88.2695C87.7883 18.2916 87.4094 18.5523 87.1304 19.0707C86.8838 19.5363 86.7591 20.1124 86.7591 20.7988C86.7591 21.5097 86.8862 22.1136 87.1375 22.6066C87.4218 23.1548 87.7979 23.4308 88.2695 23.4308H90.5278H90.5273ZM101.23 21.8078H96.6895V25.3687H94.7156V20.8113C94.7156 19.9698 94.7978 19.2512 94.965 18.6603C95.1643 17.9541 95.4811 17.4131 95.9149 17.0373C96.4062 16.6115 97.0565 16.3988 97.864 16.3988H102.236V18.2921H97.8664C97.3752 18.2921 97.0312 18.5551 96.8367 19.0812C96.7717 19.2536 96.7249 19.5166 96.6895 19.8699H101.23V21.7555V21.8083V21.8078ZM108.732 18.2921H106.713V25.3692H104.768V18.2921H102.764V16.3988H108.731V18.2921H108.732Z" fill="#144172"/>
<path d="M75.0224 30.6346C75.0224 29.7821 75.4008 29.3376 76.0846 29.3376C76.6078 29.3376 76.9777 29.6727 77.0661 30.2919L78.1121 30.1532C77.9515 29.1408 77.1712 28.4851 76.0445 28.4851C74.7892 28.4851 73.9683 29.3299 73.9683 30.517V31.7262C73.9683 32.9138 74.7892 33.7587 76.0445 33.7587C77.1712 33.7587 77.9515 33.1034 78.1121 32.0906L77.0661 31.9518C76.9777 32.5711 76.6078 32.9061 76.0846 32.9061C75.4008 32.9061 75.0224 32.4616 75.0224 31.6096V30.6337V30.6346ZM79.2035 33.6718H82.7681V32.8197H80.258V28.5729H79.2039V33.6723L79.2035 33.6718ZM85.6289 32.9071C84.9365 32.9071 84.647 32.4261 84.647 31.4646V28.5724H83.5929V31.7853C83.5929 32.9796 84.3488 33.7592 85.6285 33.7592C86.9076 33.7592 87.664 32.9796 87.664 31.7853V28.5724H86.6099V31.4646C86.6099 32.4261 86.3204 32.9071 85.6285 32.9071H85.6289ZM92.8027 32.2154C92.8027 31.4286 92.312 30.8967 91.1532 30.7143L90.6864 30.6418C90.1316 30.5545 89.8898 30.3284 89.8898 29.964C89.8898 29.629 90.1555 29.3376 90.6864 29.3376C91.2015 29.3376 91.5154 29.6146 91.6277 30.0586L92.6661 29.9127C92.4649 29.0169 91.7166 28.4851 90.6782 28.4851C89.4875 28.4851 88.8357 29.1917 88.8357 29.9712C88.8357 30.7945 89.3747 31.2899 90.4288 31.4574L90.8957 31.5299C91.4829 31.6245 91.7486 31.8726 91.7486 32.2437C91.7486 32.608 91.427 32.9066 90.8636 32.9066C90.2926 32.9066 89.8903 32.6225 89.7293 32.0762L88.6828 32.2149C88.9485 33.2052 89.777 33.7587 90.8632 33.7587C92.0621 33.7587 92.8027 33.1106 92.8027 32.2149V32.2154ZM93.3623 29.425H94.8588V33.6718H95.913V29.425H97.4095V28.5724H93.3623V29.425ZM98.2916 33.6718H101.856V32.8269H99.3462V31.4723H101.527V30.627H99.3462V29.4178H101.856V28.5724H98.2916V33.6718ZM106.005 33.6718H107.139L105.86 31.6029C106.439 31.3917 106.898 30.9255 106.898 30.1532C106.898 29.0534 105.957 28.5724 105.055 28.5724H102.987V33.6718H104.041V31.7344H104.822L106.004 33.6718H106.005ZM104.041 30.8819V29.425H104.926C105.458 29.425 105.844 29.6362 105.844 30.1532C105.844 30.6634 105.458 30.8819 104.926 30.8819H104.041Z" fill="#FEFEFE"/>
<defs>
<linearGradient id="paint0_linear_626_16" x1="33.4544" y1="45.843" x2="30.3147" y2="4.86298" gradientUnits="userSpaceOnUse">
<stop stop-color="#008DD2"/>
<stop offset="0.0823529" stop-color="#028ECD"/>
<stop offset="0.101961" stop-color="#0590C8"/>
<stop offset="0.270588" stop-color="#144172"/>
<stop offset="0.45098" stop-color="#0988BF"/>
<stop offset="0.709804" stop-color="#067AB2"/>
<stop offset="1" stop-color="#144172"/>
</linearGradient>
<linearGradient id="paint1_linear_626_16" x1="2.99652" y1="27.3272" x2="37.0668" y2="35.5207" gradientUnits="userSpaceOnUse">
<stop stop-color="#E31E24"/>
<stop offset="0.0705882" stop-color="#E03224"/>
<stop offset="0.180392" stop-color="#E73767"/>
<stop offset="0.290196" stop-color="#8E2425"/>
<stop offset="0.501961" stop-color="#9F2420"/>
<stop offset="0.588235" stop-color="#E73767"/>
<stop offset="0.690196" stop-color="#E13224"/>
<stop offset="1" stop-color="#E31E24"/>
</linearGradient>
<linearGradient id="paint2_linear_626_16" x1="11.0162" y1="48.2153" x2="26.7384" y2="-5.96055" gradientUnits="userSpaceOnUse">
<stop stop-color="#144172"/>
<stop offset="1" stop-color="#008DD2"/>
</linearGradient>
</defs>
</svg>
